<svg width="250" height="33" viewBox="0 0 250 33" fill="none" xmlns="http://www.w3.org/2000/svg">
<g clip-path="url(#clip0_49_4146)">
<path fill-rule="evenodd" clip-rule="evenodd" d="M20.64 21.72L24.14 23.74L26.81 25.29V25.92L20.64 27.54L13.41 29.44L0 32.97V0L13.41 5.03V11.46H20.64V21.72ZM43.31 30.59V2.28L33.26 6.04V11.46H26.81V21.07L33.26 24.79L43.31 30.59Z" fill="url(#paint0_radial_49_4146)"/>
<path d="M66.7798 5.60938H71.5698V12.4194C72.4398 10.9794 74.0498 10.3994 75.7598 10.3994C78.2198 10.3994 79.6598 11.2694 80.5198 12.6794C81.3898 14.0694 81.6198 15.9694 81.6198 18.0194V26.9694H76.8298V18.2494C76.8298 17.3594 76.7198 16.5194 76.3398 15.9094C75.9298 15.2994 75.2998 14.8994 74.2598 14.8994C72.9298 14.8994 72.2398 15.5094 71.9198 16.1994C71.5698 16.8894 71.5698 17.6694 71.5698 18.0794V26.9694H66.7798V5.60938Z" fill="#232126"/>
<path d="M83.8599 10.9492H88.6499V26.9692H83.8599V10.9492Z" fill="#232126"/>
<path d="M90.96 10.9504H95.43V12.6504C95.98 11.8704 96.99 10.4004 99.85 10.4004C105.24 10.4004 105.8 14.7904 105.8 16.9504V26.9604H101.01V18.2104C101.01 16.4504 100.64 14.8904 98.5 14.8904C96.13 14.8904 95.76 16.5904 95.76 18.2404V26.9604H90.97V10.9504H90.96Z" fill="#232126"/>
<path d="M112.84 5.60938H108.05V26.9694H112.84V5.60938Z" fill="#232126"/>
<path d="M131.97 26.9702H127.18V25.2402C126.31 26.8002 124.32 27.5202 122.45 27.5202C117.37 27.5202 114.4 23.5402 114.4 18.9502C114.4 13.7002 118.18 10.4102 122.45 10.4102C125.07 10.4102 126.55 11.6802 127.18 12.6602V10.9602H131.97V26.9702ZM119.19 19.0302C119.19 20.5002 120.29 23.0402 123.17 23.0402C124.87 23.0402 125.91 22.2302 126.52 21.2502C126.93 20.6202 127.13 19.9202 127.19 19.2002C127.25 18.4802 127.1 17.7602 126.78 17.0902C126.26 15.9902 125.16 14.8702 123.14 14.8702C120.4 14.8702 119.19 17.1802 119.19 19.0002V19.0302Z" fill="#232126"/>
<path d="M58.6298 14.5796H56.2598V10.9396H58.6298V5.59961H63.4198V10.9396H65.7298V14.5796H63.4198V26.9596H58.6298V14.5796Z" fill="#232126"/>
<path d="M83.8599 5.60938H88.6499V9.24937H83.8599V5.60938Z" fill="#FCC42A"/>
<path d="M197.31 11.7695H202.02V27.5195H197.31V11.7695Z" fill="#FCC42A"/>
<path d="M197.31 6.51953H202.02V10.0995H197.31V6.51953Z" fill="#FCC42A"/>
<path d="M182.9 11.7695H187.61V27.5195H182.9V11.7695Z" fill="#FCC42A"/>
<path d="M182.9 6.51953H187.61V10.0995H182.9V6.51953Z" fill="#FCC42A"/>
<path d="M195.16 6.51953H190.45V27.5295H195.16V6.51953Z" fill="#FCC42A"/>
<path d="M220.79 26.9814H216.08V25.2814C215.23 26.8114 213.27 27.5214 211.42 27.5214C206.42 27.5214 203.5 23.6014 203.5 19.0914C203.5 13.9214 207.22 10.6914 211.42 10.6914C214 10.6914 215.45 11.9414 216.08 12.9014V11.2314H220.79V26.9814ZM208.22 19.1714C208.22 20.6214 209.3 23.1214 212.14 23.1214C213.81 23.1214 214.84 22.3314 215.43 21.3614C215.83 20.7414 216.03 20.0514 216.09 19.3414C216.15 18.6314 216 17.9214 215.69 17.2714C215.18 16.1914 214.1 15.0814 212.11 15.0814C209.41 15.0814 208.22 17.3514 208.22 19.1414V19.1714Z" fill="#FCC42A"/>
<path d="M224.71 15.3398H222.38V11.7598H224.71V6.50977H229.42V11.7598H231.69V15.3398H229.42V27.5198H224.71V15.3398Z" fill="#FCC42A"/>
<path d="M154.78 27.2105L153.85 24.1605C153.81 24.0805 153.76 24.0405 153.69 24.0405H146.03C145.97 24.0405 145.92 24.0805 145.87 24.1605L144.97 27.2105C144.91 27.4205 144.77 27.5205 144.57 27.5205H140.62C140.5 27.5205 140.4 27.4805 140.34 27.4105C140.28 27.3405 140.27 27.2305 140.31 27.0805L147.03 6.04047C147.09 5.83047 147.23 5.73047 147.43 5.73047H152.32C152.53 5.73047 152.66 5.83047 152.72 6.04047L159.44 27.0805C159.46 27.1205 159.47 27.1705 159.47 27.2405C159.47 27.4305 159.36 27.5205 159.13 27.5205H155.18C154.97 27.5205 154.84 27.4205 154.78 27.2105ZM147.12 20.6405H152.6C152.72 20.6405 152.77 20.5805 152.72 20.4505L149.92 11.2005C149.9 11.1205 149.87 11.0805 149.83 11.0905C149.79 11.1005 149.76 11.1405 149.74 11.2005L147 20.4505C146.97 20.5805 147.01 20.6405 147.12 20.6405Z" fill="#FCC42A"/>
<path d="M176.7 12.0202C176.7 12.1202 176.76 12.1702 176.87 12.1702H180.32C180.43 12.1702 180.53 12.2102 180.61 12.2702C180.69 12.3402 180.73 12.4202 180.73 12.5202V15.1802C180.73 15.2802 180.69 15.3602 180.61 15.4302C180.53 15.5002 180.43 15.5302 180.32 15.5302H176.87C176.75 15.5302 176.7 15.5802 176.7 15.6802V27.1502C176.7 27.2502 176.66 27.3302 176.58 27.4002C176.5 27.4702 176.4 27.5002 176.29 27.5002H172.25C172.13 27.5002 172.04 27.4702 171.96 27.4002C171.88 27.3302 171.84 27.2502 171.84 27.1502V15.6902C171.84 15.5902 171.78 15.5402 171.67 15.5402H165.28C165.16 15.5402 165.11 15.5902 165.11 15.6902V27.1602C165.11 27.2602 165.07 27.3402 164.99 27.4102C164.91 27.4802 164.81 27.5102 164.7 27.5102H160.66C160.54 27.5102 160.45 27.4802 160.37 27.4102C160.29 27.3402 160.25 27.2602 160.25 27.1602V15.6902C160.25 15.5902 160.19 15.5402 160.08 15.5402H158.15C158.03 15.5402 157.94 15.5102 157.86 15.4402C157.78 15.3702 157.74 15.2902 157.74 15.1902V12.5302C157.74 12.4302 157.78 12.3502 157.86 12.2802C157.94 12.2102 158.04 12.1802 158.15 12.1802H160.08C160.19 12.1802 160.25 12.1302 160.25 12.0302V11.0702C160.25 9.4202 160.77 8.2402 161.82 7.5502C162.87 6.8502 164.63 6.5402 167.12 6.6202H168.43C168.54 6.6202 168.64 6.6502 168.72 6.7202C168.8 6.7902 168.84 6.8702 168.84 6.9702V9.1202C168.84 9.2202 168.8 9.3002 168.72 9.3702C168.64 9.4402 168.54 9.4702 168.43 9.4702H167.12C166.36 9.4902 165.84 9.6502 165.55 9.9602C165.26 10.2702 165.12 10.7502 165.12 11.4102V12.0102C165.12 12.1102 165.18 12.1602 165.29 12.1602H171.68C171.79 12.1602 171.85 12.1102 171.85 12.0102V11.0502C171.85 9.4002 172.37 8.2202 173.42 7.5302C174.47 6.8302 176.24 6.5202 178.75 6.6002H180.06C180.18 6.6002 180.27 6.6302 180.35 6.7002C180.43 6.7702 180.47 6.8502 180.47 6.9502V9.1002C180.47 9.2002 180.43 9.2802 180.35 9.3502C180.27 9.4202 180.17 9.4502 180.06 9.4502H178.75C177.99 9.4702 177.46 9.6402 177.16 9.9602C176.86 10.2802 176.71 10.7602 176.71 11.3902V12.0202H176.7Z" fill="#FCC42A"/>
<path d="M240.9 27.5195C238.5 27.5195 236.54 26.7495 235 25.2095C233.47 23.6695 232.7 21.6195 232.7 19.0595C232.7 16.5095 233.46 14.4695 234.98 12.9595C236.5 11.4495 238.47 10.6895 240.89 10.6895C243.31 10.6895 245.31 11.4395 246.9 12.9295C248.49 14.4195 249.29 16.4995 249.29 19.1495C249.29 19.7195 249.25 20.2495 249.17 20.7395H237.85C237.95 21.4695 238.27 22.0595 238.82 22.5195C239.37 22.9795 239.96 23.2095 240.6 23.2095C241.24 23.2095 241.72 23.1495 242.03 23.0195C242.34 22.8895 242.58 22.7595 242.72 22.6395C242.87 22.5095 243.06 22.2995 243.3 22.0095H248.75C248.28 23.6595 247.33 24.9895 245.92 25.9995C244.52 27.0195 242.84 27.5195 240.9 27.5195ZM243.05 15.7195C242.46 15.2395 241.76 14.9995 240.96 14.9995C240.15 14.9995 239.48 15.2395 238.93 15.7195C238.38 16.1995 238.04 16.8295 237.9 17.5895H244.06C243.97 16.8195 243.64 16.1995 243.05 15.7195Z" fill="#FCC42A"/>
</g>
<defs>
<radialGradient id="paint0_radial_49_4146" cx="0" cy="0" r="1" gradientUnits="userSpaceOnUse" gradientTransform="translate(23.5485 16.485) scale(20.0158 26.2951)">
<stop stop-color="#A57BFF"/>
<stop offset="0.799" stop-color="#905CFF"/>
</radialGradient>
<clipPath id="clip0_49_4146">
<rect width="249.3" height="32.97" fill="white"/>
</clipPath>
</defs>
</svg>
